<svg width="34" height="34" viewBox="0 0 34 34" fill="none" xmlns="http://www.w3.org/2000/svg">
<path fill-rule="evenodd" clip-rule="evenodd" d="M17 11.3335C13.8704 11.3335 11.3333 13.8705 11.3333 17.0001C11.3333 20.1298 13.8704 22.6668 17 22.6668C20.1296 22.6668 22.6667 20.1298 22.6667 17.0001C22.6667 13.8705 20.1296 11.3335 17 11.3335ZM14.1666 17.0001C14.1666 15.4354 15.4351 14.1668 17 14.1668C18.5648 14.1668 19.8333 15.4354 19.8333 17.0001C19.8333 18.565 18.5648 19.8335 17 19.8335C15.4351 19.8335 14.1666 18.565 14.1666 17.0001Z" fill="#0F1729"/>
<path fill-rule="evenodd" clip-rule="evenodd" d="M17 11.3335C13.8704 11.3335 11.3333 13.8705 11.3333 17.0001C11.3333 20.1298 13.8704 22.6668 17 22.6668C20.1296 22.6668 22.6667 20.1298 22.6667 17.0001C22.6667 13.8705 20.1296 11.3335 17 11.3335ZM14.1666 17.0001C14.1666 15.4354 15.4351 14.1668 17 14.1668C18.5648 14.1668 19.8333 15.4354 19.8333 17.0001C19.8333 18.565 18.5648 19.8335 17 19.8335C15.4351 19.8335 14.1666 18.565 14.1666 17.0001Z" fill="#0F1729"/>
<path fill-rule="evenodd" clip-rule="evenodd" d="M15.2537 1.44072C15.5727 1.41626 15.931 1.41641 16.2231 1.41652H17.7769C18.069 1.41641 18.4273 1.41626 18.7463 1.44072C19.1234 1.46962 19.646 1.5431 20.2065 1.79811C20.915 2.12043 21.5213 2.6311 21.9593 3.27442C22.306 3.7834 22.4672 4.28596 22.5598 4.6526C22.6382 4.9629 22.699 5.31587 22.7484 5.60375L22.949 6.76633L22.953 6.7685C23.0023 6.79576 23.0513 6.82334 23.1002 6.85126L23.1038 6.8533L24.4311 6.37293C24.7004 6.27536 25.0315 6.15538 25.3349 6.07086C25.6942 5.97081 26.2018 5.86327 26.8056 5.90771C27.5703 5.96398 28.3054 6.22605 28.9333 6.66615C29.429 7.01368 29.7541 7.41802 29.969 7.7228C30.1508 7.98029 30.3312 8.28268 30.4782 8.52858L31.189 9.71821C31.3446 9.97806 31.5341 10.2949 31.6805 10.5898C31.8527 10.9369 32.0631 11.4391 32.1267 12.0708C32.2066 12.8663 32.0607 13.6683 31.7054 14.3845C31.4232 14.9533 31.0492 15.349 30.7656 15.6132C30.5248 15.8375 30.2356 16.0672 29.9986 16.2555L29.0417 16.9998L29.9986 17.7442C30.2356 17.9326 30.5248 18.1622 30.7656 18.3866C31.0492 18.6507 31.4232 19.0464 31.7053 19.6151C32.0606 20.3314 32.2066 21.1334 32.1266 21.929C32.0631 22.5607 31.8526 23.0627 31.6803 23.41C31.534 23.7048 31.3444 24.0217 31.189 24.2815L30.4779 25.4714C30.3311 25.7173 30.1506 26.0195 29.969 26.2769C29.754 26.5817 29.429 26.9861 28.9331 27.3336C28.3054 27.7737 27.5702 28.0358 26.8056 28.0921C26.2018 28.1365 25.6942 28.0289 25.3349 27.9289C25.0314 27.8443 24.7003 27.7244 24.431 27.6268L23.1037 27.1464L23.1002 27.1486C23.0513 27.1765 23.0023 27.2039 22.953 27.2313L22.949 27.2334L22.7484 28.3959C22.699 28.6838 22.6382 29.0368 22.5598 29.3471C22.4672 29.7137 22.306 30.2163 21.9593 30.7254C21.5213 31.3687 20.915 31.8794 20.2065 32.2017C19.646 32.4567 19.1234 32.5302 18.7463 32.5591C18.4271 32.5835 18.069 32.5833 17.7769 32.5832H16.2231C15.931 32.5833 15.5727 32.5835 15.2537 32.5591C14.8765 32.5302 14.3539 32.4567 13.7934 32.2017C13.085 31.8794 12.4787 31.3687 12.0406 30.7254C11.694 30.2163 11.5328 29.7137 11.4402 29.3471C11.3618 29.0368 11.3011 28.6838 11.2515 28.3959L11.051 27.2334L11.047 27.2313C10.9977 27.2039 10.9486 27.1765 10.8998 27.1484L10.8962 27.1464L9.56898 27.6268C9.2997 27.7243 8.9686 27.8443 8.66505 27.9289C8.30574 28.0289 7.79822 28.1364 7.19441 28.0921C6.42976 28.0358 5.69458 27.7737 5.06676 27.3336C4.57101 26.9861 4.24594 26.5817 4.03096 26.2769C3.84933 26.0195 3.66879 25.7172 3.52197 25.4712L2.81091 24.2815C2.65549 24.0217 2.46594 23.7048 2.3196 23.41C2.14731 23.0627 1.93685 22.5607 1.87332 21.929C1.79332 21.1334 1.93937 20.3314 2.29465 19.6151C2.5768 19.0464 2.95075 18.6507 3.23436 18.3866C3.47525 18.1622 3.76432 17.9326 4.00135 17.7442L4.92778 17.0075V16.9923L4.0013 16.2555C3.76425 16.0672 3.47519 15.8375 3.2343 15.6132C2.9507 15.349 2.57674 14.9533 2.2946 14.3845C1.93931 13.6683 1.79327 12.8663 1.87325 12.0708C1.93677 11.4391 2.14725 10.937 2.31953 10.5898C2.46587 10.295 2.65544 9.97809 2.81086 9.71824L3.5219 8.52854C3.66872 8.28265 3.84927 7.98029 4.03089 7.72281C4.24588 7.41803 4.57094 7.0137 5.0667 6.66618C5.69451 6.22606 6.4297 5.96399 7.19435 5.90772C7.79815 5.86328 8.30568 5.97082 8.66498 6.07088C8.96851 6.15541 9.29962 6.27539 9.56888 6.37295L10.8962 6.85332L10.8997 6.85126C10.9486 6.82336 10.9977 6.79576 11.047 6.7685L11.051 6.76633L11.2515 5.60376C11.3011 5.31588 11.3618 4.9629 11.4402 4.6526C11.5328 4.28596 11.694 3.7834 12.0406 3.27442C12.4787 2.6311 13.085 2.12043 13.7934 1.79811C14.3539 1.5431 14.8765 1.46962 15.2537 1.44072ZM19.9662 6.14293C19.8489 5.46299 19.7903 5.12303 19.6174 4.86916C19.4714 4.65472 19.2694 4.4845 19.0332 4.37706C18.7535 4.24987 18.4086 4.24987 17.7187 4.24987H16.2813C15.5914 4.24987 15.2463 4.24987 14.9668 4.37706C14.7306 4.4845 14.5286 4.65472 14.3826 4.86916C14.2097 5.12303 14.151 5.46299 14.0337 6.14293L13.8127 7.42408C13.7338 7.88122 13.6944 8.10979 13.6108 8.28548C13.5288 8.458 13.4617 8.5523 13.3257 8.68636C13.1871 8.8229 12.9307 8.96465 12.4178 9.24815C12.38 9.26906 12.3424 9.29021 12.3049 9.31162C11.8144 9.59178 11.5691 9.73186 11.3869 9.77929C11.2081 9.82587 11.0966 9.83546 10.9124 9.82012C10.7249 9.8045 10.5147 9.72846 10.0945 9.57636L8.65857 9.0567C8.02216 8.82638 7.70395 8.71122 7.40229 8.73342C7.14742 8.75216 6.90235 8.83953 6.69308 8.98622C6.4454 9.15985 6.27179 9.45034 5.92458 10.0313L5.2738 11.1202C4.90724 11.7335 4.72395 12.0402 4.69237 12.3543C4.66571 12.6194 4.71439 12.8868 4.83282 13.1255C4.97309 13.4083 5.25271 13.6307 5.81195 14.0754L6.83888 14.8921C7.19562 15.1757 7.374 15.3177 7.48582 15.4697C7.6067 15.6342 7.65825 15.741 7.71167 15.9379C7.76112 16.1201 7.76112 16.4133 7.76112 16.9998C7.76112 17.5863 7.76112 17.8796 7.71167 18.0619C7.65824 18.2588 7.6067 18.3656 7.48584 18.53C7.374 18.6821 7.19562 18.8239 6.83885 19.1077L5.81202 19.9243C5.25278 20.3691 4.97316 20.5914 4.83288 20.8743C4.71445 21.113 4.66577 21.3803 4.69243 21.6455C4.72402 21.9596 4.9073 22.2662 5.27386 22.8796L5.92463 23.9684C6.27186 24.5494 6.44546 24.84 6.69313 25.0135C6.90242 25.1603 7.14747 25.2475 7.40236 25.2664C7.70401 25.2885 8.02222 25.1733 8.65864 24.9431L10.0945 24.4235C10.5147 24.2713 10.7249 24.1952 10.9124 24.1796C11.0967 24.1643 11.2081 24.1738 11.387 24.2204C11.5691 24.2679 11.8144 24.408 12.3049 24.6881C12.3424 24.7095 12.38 24.7307 12.4178 24.7516C12.9307 25.035 13.1871 25.1768 13.3257 25.3134C13.4617 25.4474 13.5288 25.5418 13.6108 25.7143C13.6944 25.89 13.7338 26.1185 13.8127 26.5757L14.0337 27.8567C14.151 28.5367 14.2097 28.8767 14.3826 29.1306C14.5286 29.345 14.7306 29.5152 14.9668 29.6226C15.2463 29.7498 15.5914 29.7498 16.2813 29.7498H17.7187C18.4086 29.7498 18.7535 29.7498 19.0332 29.6226C19.2694 29.5152 19.4714 29.345 19.6174 29.1306C19.7903 28.8767 19.8489 28.5367 19.9662 27.8567L20.1873 26.5757C20.2661 26.1185 20.3056 25.89 20.3891 25.7143C20.4711 25.5418 20.5383 25.4474 20.6743 25.3134C20.813 25.1768 21.0694 25.035 21.5821 24.7516C21.6199 24.7307 21.6576 24.7095 21.695 24.6881C22.1856 24.408 22.4308 24.2679 22.613 24.2204C22.7919 24.1738 22.9032 24.1643 23.0876 24.1796C23.2751 24.1952 23.4852 24.2713 23.9054 24.4235L25.3413 24.9431C25.9777 25.1734 26.296 25.2886 26.5976 25.2664C26.8525 25.2475 27.0976 25.1603 27.3068 25.0135C27.5544 24.84 27.7281 24.5494 28.0753 23.9684L28.7262 22.8796C29.0927 22.2663 29.276 21.9596 29.3076 21.6455C29.3342 21.3803 29.2855 21.113 29.167 20.8743C29.0268 20.5915 28.7471 20.3691 28.188 19.9243L27.1612 19.1077C26.8043 18.8239 26.626 18.6821 26.5142 18.53C26.3933 18.3656 26.3418 18.2588 26.2882 18.0619C26.2388 17.8797 26.2388 17.5863 26.2388 16.9998C26.2388 16.4133 26.2388 16.1201 26.2882 15.9379C26.3418 15.741 26.3933 15.6342 26.5142 15.4697C26.626 15.3177 26.8043 15.1757 27.161 14.8921L28.188 14.0754C28.7473 13.6307 29.0269 13.4083 29.1672 13.1255C29.2856 12.8867 29.3342 12.6194 29.3076 12.3542C29.276 12.0402 29.0928 11.7335 28.7262 11.1202L28.0753 10.0313C27.7281 9.45032 27.5546 9.15983 27.3069 8.98621C27.0976 8.83951 26.8526 8.75215 26.5976 8.73339C26.296 8.71119 25.9778 8.82635 25.3413 9.05669L23.9055 9.57635C23.4852 9.72844 23.2751 9.80449 23.0876 9.8201C22.9032 9.83544 22.7919 9.82585 22.613 9.77927C22.4308 9.73184 22.1856 9.59176 21.6951 9.31162C21.6576 9.29021 21.6199 9.26906 21.5822 9.24815C21.0694 8.96465 20.813 8.8229 20.6743 8.68636C20.5383 8.5523 20.4711 8.458 20.3891 8.28548C20.3056 8.10979 20.2661 7.88121 20.1873 7.42408L19.9662 6.14293Z" fill="#0F1729"/>
</svg>
